<?xml version="1.0" encoding="UTF-8"?>
<svg width="74px" height="83px" viewBox="0 0 74 83" version="1.1" xmlns="http://www.w3.org/2000/svg" xmlns:xlink="http://www.w3.org/1999/xlink">
    <title>desktop_pic_qpp_logo_03</title>
    <g id="Symbols" stroke="none" stroke-width="1" fill="none" fill-rule="evenodd">
        <g id="desktop_pic_qpp_logo_03" fill="#FFFFFF">
            <path d="M34.1265167,17.4349667 L25.2971833,22.5333 L16.4666833,17.4349667 C15.3875167,16.8119667 14.0470167,16.8119667 12.9666833,17.4349667 L9.90885,19.2024667 L22.9941833,26.7543 C24.41635,27.5756333 26.1815167,27.5733 27.60135,26.7543 L40.6855167,19.2024667 L37.6265167,17.4349667 C36.5450167,16.8143 35.20335,16.8143 34.1265167,17.4349667 L34.1265167,17.4349667 Z M71.2965167,13.0273 L50.89735,0.8928 C49.22435,-0.0767 47.1395167,-0.0755333333 45.4571833,0.895133333 L43.36185,2.10496667 L68.66685,17.1083 L68.66685,38.4886333 L68.4720167,38.6006333 L48.1801833,50.3163 L47.9876833,50.2031333 L27.6935167,38.4886333 L27.6935167,31.4011333 C26.0741833,31.8573 24.49685,31.8549667 22.8821833,31.3976333 L22.8821833,38.9681333 C22.8821833,40.3844667 23.6451833,41.7028 24.87135,42.4109667 L45.4571833,54.2981333 C47.1406833,55.2653 49.2290167,55.2653 50.90435,54.2981333 L70.7540167,42.8368 C72.4340167,41.8661333 73.4781833,40.0601333 73.4781833,38.1199667 L73.4781833,16.8621333 C73.4781833,15.2964667 72.6416833,13.8264667 71.2965167,13.0273 L71.2965167,13.0273 Z M39.35085,37.7571333 L48.1801833,32.6599667 L57.0106833,37.7571333 C58.0921833,38.3801333 59.4326833,38.3778 60.51185,37.7571333 L63.5685167,35.9908 L50.48435,28.4378 C49.06335,27.6164667 47.2981833,27.6164667 45.8760167,28.4378 L32.79185,35.9908 L35.85085,37.7571333 C36.9300167,38.3801333 38.2716833,38.3778 39.35085,37.7571333 L39.35085,37.7571333 Z M4.81051667,16.7046333 L5.00418333,16.5926333 L25.2960167,4.87696667 L25.4896833,4.99013333 L45.7826833,16.7058 L45.7826833,23.7933 C47.4020167,23.3359667 48.9781833,23.3371333 50.5940167,23.7968 L50.5940167,16.2251333 C50.5940167,14.8099667 49.8321833,13.4904667 48.6071833,12.7823 L28.0201833,0.8963 C27.1941833,0.4203 26.2526833,0.1683 25.2971833,0.1683 C24.3405167,0.1683 23.3990167,0.4203 22.5730167,0.8963 L2.72218333,12.3564667 C1.04335,13.3259667 0.00035,15.1331333 0.00035,17.0733 L0.00035,38.3311333 C0.00035,39.8979667 0.835683333,41.3679667 2.18085,42.1671333 L22.57885,54.3016333 C24.25535,55.2688 26.34135,55.2688 28.0201833,54.2981333 L30.1155167,53.0894667 L4.81051667,38.0838 L4.81051667,16.7046333 Z" id="Fill-1"></path>
            <path d="M40.43095,63.87145 L32.38795,63.87145 C31.4417833,63.87145 30.67295,64.6402833 30.67295,65.5852833 L30.67295,80.46495 C30.67295,81.4087833 31.4417833,82.1776167 32.38795,82.1776167 C33.33295,82.1776167 34.1017833,81.4087833 34.1017833,80.46495 L34.1017833,67.2991167 L40.43095,67.2991167 C42.2112833,67.2991167 43.6602833,68.7481167 43.6602833,70.5272833 L43.6602833,71.9412833 C43.6602833,73.7216167 42.2112833,75.1706167 40.43095,75.1706167 L35.8062833,75.1706167 L35.8062833,78.5982833 L40.43095,78.5982833 C44.1012833,78.5982833 47.0867833,75.6116167 47.0867833,71.9412833 L47.0867833,70.5272833 C47.0867833,66.8581167 44.1012833,63.87145 40.43095,63.87145 L40.43095,63.87145 Z M26.9536167,77.1901167 C27.8787833,75.6372833 28.36645,73.8767833 28.36645,72.0882833 C28.36645,66.5676167 23.87595,62.07595 18.3552833,62.07595 C12.8346167,62.07595 8.34411667,66.5676167 8.34411667,72.0882833 C8.34411667,77.6077833 12.8346167,82.09945 18.3552833,82.09945 C20.0621167,82.09945 21.7502833,81.6572833 23.2366167,80.8207833 L23.30895,80.7811167 L24.1687833,81.6607833 C24.4942833,81.99445 24.92945,82.1776167 25.39495,82.1776167 C25.8452833,82.1776167 26.2711167,82.00495 26.5931167,81.6887833 C26.9197833,81.3702833 27.1041167,80.9421167 27.1087833,80.4836167 C27.11345,80.0262833 26.9407833,79.5946167 26.6211167,79.2656167 L20.5497833,73.0566167 C19.88945,72.3811167 18.8021167,72.3682833 18.1266167,73.0297833 C17.79995,73.34945 17.6167833,73.7776167 17.61095,74.23495 C17.6062833,74.6922833 17.77895,75.1251167 18.0997833,75.45295 L20.7901167,78.2027833 L20.6361167,78.2611167 C19.90345,78.5341167 19.13695,78.67295 18.3552833,78.67295 C14.7246167,78.67295 11.7717833,75.7177833 11.7717833,72.0882833 C11.7717833,68.4587833 14.7246167,65.5036167 18.3552833,65.5036167 C21.98595,65.5036167 24.93995,68.4587833 24.93995,72.0882833 C24.93995,72.9597833 24.7696167,73.8102833 24.4347833,74.61295 L26.9536167,77.1901167 Z M58.4781167,63.87145 L50.4351167,63.87145 C49.4901167,63.87145 48.7212833,64.6402833 48.7212833,65.5852833 L48.7212833,80.46495 C48.7212833,81.4087833 49.4901167,82.1776167 50.4351167,82.1776167 C51.36845,82.1776167 52.1197833,81.44495 52.1442833,80.5092833 L52.1477833,67.2991167 L58.4781167,67.2991167 C60.25845,67.2991167 61.7062833,68.7481167 61.7062833,70.5272833 L61.7062833,71.9412833 C61.7062833,73.7216167 60.25845,75.1706167 58.4781167,75.1706167 L53.8126167,75.1706167 L53.8126167,78.5982833 L58.4781167,78.5982833 C62.14845,78.5982833 65.13395,75.6116167 65.13395,71.9412833 L65.13395,70.5272833 C65.13395,66.8581167 62.14845,63.87145 58.4781167,63.87145 L58.4781167,63.87145 Z" id="Fill-4"></path>
        </g>
    </g>
</svg>