<?xml version="1.0" encoding="UTF-8"?>
<svg width="221px" height="69px" viewBox="0 0 221 69" version="1.1" xmlns="http://www.w3.org/2000/svg" xmlns:xlink="http://www.w3.org/1999/xlink">
    <title>desktop_pic_qpp_logo_02</title>
    <g id="web-主要功能" stroke="none" stroke-width="1" fill="none" fill-rule="evenodd">
        <g id="01-QPP-website_desktop_old" transform="translate(-104, -2270)">
            <g id="desktop_pic_qpp_logo_02" transform="translate(104, 2270)">
                <path d="M168.341598,17.4588812 L151.237583,17.4588812 C149.289659,17.4588812 147.703944,19.0445955 147.703944,20.9941895 L147.703944,52.6367008 C147.703944,54.5862947 149.289659,56.172009 151.237583,56.172009 C153.187177,56.172009 154.772892,54.5862947 154.772892,52.6367008 L154.772892,24.5294977 L168.341598,24.5294977 C172.189042,24.5294977 175.318741,27.6575278 175.318741,31.5049714 L175.318741,34.5111519 C175.318741,38.3585955 172.189042,41.4882947 168.341598,41.4882947 L158.616997,41.4882947 L158.616997,48.5589113 L168.341598,48.5589113 C176.08823,48.5589113 182.389358,42.2561143 182.389358,34.5111519 L182.389358,31.5049714 C182.389358,23.760009 176.08823,17.4588812 168.341598,17.4588812 L168.341598,17.4588812 Z M139.6602,45.4943098 C141.571403,42.2394226 142.577914,38.5588962 142.577914,34.821618 C142.577914,23.142415 133.076982,13.6398135 121.39611,13.6398135 C109.716907,13.6398135 100.215974,23.142415 100.215974,34.821618 C100.215974,46.5024902 109.716907,56.0050917 121.39611,56.0050917 C125.006531,56.0050917 128.578561,55.0703549 131.724952,53.3010316 L131.95029,53.1741744 L133.839794,55.1070767 C134.509132,55.7931068 135.408817,56.172009 136.368591,56.172009 C137.294982,56.172009 138.174636,55.814806 138.838967,55.1638286 C139.513313,54.5045053 139.892215,53.6215128 139.90223,52.6767609 C139.913914,51.732009 139.556711,50.8406707 138.895719,50.1663248 L125.986335,36.9581594 C124.625959,35.5660692 122.382591,35.5410316 120.987162,36.9014075 C119.593403,38.2634526 119.566696,40.5068211 120.930411,41.9005805 L126.767508,47.8728812 L126.285117,48.0548211 C124.714426,48.6390316 123.07029,48.9344752 121.39611,48.9344752 C113.616095,48.9344752 107.286591,42.6033023 107.286591,34.821618 C107.286591,27.041603 113.616095,20.7104301 121.39611,20.7104301 C129.177794,20.7104301 135.508967,27.041603 135.508967,34.821618 C135.508967,36.6677233 135.153433,38.4654226 134.45405,40.1679789 L139.6602,45.4943098 Z M206.72423,17.4588812 L189.618546,17.4588812 C187.668952,17.4588812 186.083238,19.0445955 186.083238,20.9941895 L186.083238,52.6367008 C186.083238,54.5862947 187.668952,56.172009 189.618546,56.172009 C191.544771,56.172009 193.093764,54.6597383 193.14217,52.7285053 L193.153854,24.5294977 L206.72423,24.5294977 C210.570005,24.5294977 213.699704,27.6575278 213.699704,31.5049714 L213.699704,34.5111519 C213.699704,38.3585955 210.570005,41.4882947 206.72423,41.4882947 L196.909493,41.4882947 L196.909493,48.5589113 L206.72423,48.5589113 C214.469192,48.5589113 220.768651,42.2561143 220.768651,34.5111519 L220.768651,31.5049714 C220.768651,23.760009 214.469192,17.4588812 206.72423,17.4588812 L206.72423,17.4588812 Z" id="Fill-1" fill="#FFFFFF"></path>
                <path d="M88.3713564,16.2500662 L63.1451459,1.2442015 C61.0319729,0.0223669173 58.4030256,0.0240360902 56.2831759,1.24587068 L53.4973263,2.85662256 L84.9195068,21.4879308 L84.9195068,47.7757353 L84.7459128,47.8758857 L59.7166647,62.3259158 L59.5430707,62.2240962 L34.5138226,47.7757353 L34.5138226,38.9107579 C32.4206797,39.5333594 30.3859579,39.5316902 28.2994917,38.9057504 L28.2994917,48.4467429 C28.2994917,50.2427729 29.267612,51.9186226 30.8249504,52.8183068 L56.2831759,67.5170436 C58.4063639,68.7388782 61.0336421,68.7388782 63.1501534,67.5170436 L87.7003489,53.3457654 C89.8185293,52.1205925 91.1338376,49.8405023 91.1338376,47.3968331 L91.1338376,21.1073594 C91.1338376,19.124382 90.075582,17.2632541 88.3713564,16.2500662" id="Fill-4" fill="#56DFF9"></path>
                <path d="M48.8622,47.0629985 L59.7168316,40.7969233 L70.5714632,47.0629985 C71.9485308,47.8575248 73.6560947,47.8558556 75.0331624,47.0629985 L79.0108015,44.7645474 L62.6328767,35.3070135 C60.8351774,34.2704571 58.6001549,34.268788 56.8007865,35.3070135 L40.4228617,44.7645474 L44.4038391,47.0629985 C45.7775684,47.8558556 47.4868015,47.8541865 48.8622,47.0629985" id="Fill-7" fill="#04AEE8"></path>
                <path d="M42.2701353,21.7019188 L31.4171729,27.967994 L20.5608722,21.7019188 C19.1854737,20.9073925 17.4779098,20.9073925 16.1025113,21.7019188 L12.123203,24.0003699 L28.5011278,33.4562346 C30.3055038,34.4944602 32.5355188,34.492791 34.333218,33.4562346 L50.7111429,24.0003699 L46.7301654,21.7019188 C45.3514286,20.9057233 43.6438647,20.9090617 42.2701353,21.7019188" id="Fill-9" fill="#04AEE8"></path>
                <path d="M6.21266165,20.9886812 L6.38625564,20.8885308 L31.4155038,6.43850075 L31.5890977,6.5403203 L56.6183459,20.9886812 L56.6183459,29.8536586 C58.7081504,29.2310571 60.7445414,29.2327263 62.8326767,29.8586662 L62.8326767,20.3193429 C62.8326767,18.5216436 61.8662256,16.8474632 60.3088872,15.9461098 L34.8489925,1.24737293 C33.8107669,0.646470677 32.6223158,0.330996992 31.4171729,0.330996992 C30.2103609,0.330996992 29.0235789,0.646470677 27.982015,1.24737293 L3.43181955,15.4203203 C1.31530827,16.6438241 0,18.9222451 0,21.3692526 L0,47.6587263 C0,49.6417038 1.05825564,51.5011624 2.7624812,52.5143504 L27.9870226,67.520215 C30.1035338,68.7420496 32.730812,68.7403805 34.8489925,67.5185459 L37.6348421,65.9094632 L6.21266165,47.2781549 L6.21266165,20.9886812 Z" id="Fill-11" fill="#56DFF9"></path>
            </g>
        </g>
    </g>
</svg>