<?xml version="1.0" encoding="UTF-8"?>
<svg width="148px" height="47px" viewBox="0 0 148 47" version="1.1" xmlns="http://www.w3.org/2000/svg" xmlns:xlink="http://www.w3.org/1999/xlink">
    <title>desktop_image_qpp_logo_01</title>
    <g id="Symbols" stroke="none" stroke-width="1" fill="none" fill-rule="evenodd">
        <g id="Group">
            <path d="M112.227732,12.5329293 L100.825056,12.5329293 C99.5264391,12.5329293 98.4692962,13.5900722 98.4692962,14.8898015 L98.4692962,35.984809 C98.4692962,37.2845383 99.5264391,38.3416812 100.825056,38.3416812 C102.124785,38.3416812 103.181928,37.2845383 103.181928,35.984809 L103.181928,17.2466737 L112.227732,17.2466737 C114.792695,17.2466737 116.879161,19.3320271 116.879161,21.8969895 L116.879161,23.9011098 C116.879161,26.4660722 114.792695,28.5525383 112.227732,28.5525383 L105.744665,28.5525383 L105.744665,33.2662827 L112.227732,33.2662827 C117.392153,33.2662827 121.592905,29.064418 121.592905,23.9011098 L121.592905,21.8969895 C121.592905,16.7336812 117.392153,12.5329293 112.227732,12.5329293 L112.227732,12.5329293 Z M93.1068,31.223215 C94.3809353,29.0532902 95.0519429,26.599606 95.0519429,24.1080872 C95.0519429,16.3219519 88.717988,9.98688421 80.9307398,9.98688421 C73.1446045,9.98688421 66.8106496,16.3219519 66.8106496,24.1080872 C66.8106496,31.8953353 73.1446045,38.230403 80.9307398,38.230403 C83.3376872,38.230403 85.7190406,37.6072451 87.8166346,36.4276962 L87.9668602,36.3431248 L89.2265293,37.6317263 C89.6727549,38.0890797 90.2725444,38.3416812 90.912394,38.3416812 C91.529988,38.3416812 92.1164241,38.1035459 92.5593113,37.6695609 C93.0088752,37.230012 93.2614767,36.6413504 93.2681534,36.0115158 C93.2759429,35.3816812 93.0378075,34.7874556 92.5971459,34.3378917 L83.9908902,25.5324481 C83.0839729,24.604388 81.588394,24.5876962 80.6581083,25.4946135 C79.7289353,26.4026436 79.7111308,27.8982226 80.6202737,28.8273955 L84.5116722,32.8089293 L84.1900782,32.9302226 C83.1429504,33.3196962 82.0468602,33.5166586 80.9307398,33.5166586 C75.7440632,33.5166586 71.524394,29.2958767 71.524394,24.1080872 C71.524394,18.9214105 75.7440632,14.7006286 80.9307398,14.7006286 C86.1185293,14.7006286 90.3393113,18.9214105 90.3393113,24.1080872 C90.3393113,25.3388241 90.1022887,26.5372902 89.6360331,27.6723278 L93.1068,31.223215 Z M137.816153,12.5329293 L126.412364,12.5329293 C125.112635,12.5329293 124.055492,13.5900722 124.055492,14.8898015 L124.055492,35.984809 C124.055492,37.2845383 125.112635,38.3416812 126.412364,38.3416812 C127.696514,38.3416812 128.729176,37.3335008 128.761447,36.046012 L128.769236,17.2466737 L137.816153,17.2466737 C140.380003,17.2466737 142.466469,19.3320271 142.466469,21.8969895 L142.466469,23.9011098 C142.466469,26.4660722 140.380003,28.5525383 137.816153,28.5525383 L131.272995,28.5525383 L131.272995,33.2662827 L137.816153,33.2662827 C142.979462,33.2662827 147.179101,29.064418 147.179101,23.9011098 L147.179101,21.8969895 C147.179101,16.7336812 142.979462,12.5329293 137.816153,12.5329293 L137.816153,12.5329293 Z" id="Fill-1" fill="#FFFFFF"></path>
            <path d="M58.9142376,11.7270526 L42.0967639,1.72314286 C40.687982,0.908586466 38.9353504,0.909699248 37.5221173,1.72425564 L35.6648842,2.79809023 L56.6130045,15.2189624 L56.6130045,32.7441654 L56.4972752,32.8109323 L39.8111098,42.4442857 L39.6953805,42.376406 L23.009215,32.7441654 L23.009215,26.8341805 C21.6137865,27.2492481 20.2573053,27.2481353 18.8663278,26.8308421 L18.8663278,33.1915038 C18.8663278,34.3888571 19.5117414,35.5060902 20.5499669,36.1058797 L37.5221173,45.9050376 C38.9375759,46.719594 40.6890947,46.719594 42.1001023,45.9050376 L58.4668992,36.4575188 C59.8790195,35.6407368 60.7558917,34.1206767 60.7558917,32.4915639 L60.7558917,14.9652481 C60.7558917,13.6432632 60.050388,12.4025113 58.9142376,11.7270526" id="Fill-4" fill="#56DFF9"></path>
            <path d="M32.5748,32.2690075 L39.8112211,28.0916241 L47.0476421,32.2690075 C47.9656872,32.7986917 49.1040632,32.7975789 50.0221083,32.2690075 L52.6738677,30.7367068 L41.7552511,24.4316842 C40.556785,23.7406466 39.0667699,23.7395338 37.867191,24.4316842 L26.9485744,30.7367068 L29.6025594,32.2690075 C30.5183789,32.7975789 31.6578677,32.7964662 32.5748,32.2690075" id="Fill-7" fill="#04AEE8"></path>
            <path d="M28.1800902,15.3616211 L20.944782,19.5390045 L13.7072481,15.3616211 C12.7903158,14.8319368 11.6519398,14.8319368 10.7350075,15.3616211 L8.08213534,16.8939218 L19.0007519,23.1978316 C20.2036692,23.889982 21.6903459,23.8888692 22.888812,23.1978316 L33.8074286,16.8939218 L31.1534436,15.3616211 C30.2342857,14.8308241 29.0959098,14.8330496 28.1800902,15.3616211" id="Fill-9" fill="#04AEE8"></path>
            <path d="M4.14177444,14.8861293 L4.25750376,14.8193624 L20.9436692,5.18600902 L21.0593985,5.25388872 L37.7455639,14.8861293 L37.7455639,20.7961143 C39.1387669,20.3810466 40.4963609,20.3821594 41.8884511,20.7994526 L41.8884511,14.4399038 C41.8884511,13.2414376 41.2441504,12.1253173 40.2059248,11.524415 L23.2326617,1.72525714 C22.5405113,1.32465564 21.7482105,1.11433985 20.944782,1.11433985 C20.1402406,1.11433985 19.3490526,1.32465564 18.6546767,1.72525714 L2.2878797,11.1738887 C0.87687218,11.9895579 0,13.5085053 0,15.1398436 L0,32.6661594 C0,33.9881444 0.705503759,35.2277835 1.84165414,35.9032421 L18.658015,45.9071519 C20.0690226,46.7217083 21.8205414,46.7205955 23.2326617,45.9060391 L25.0898947,44.8333173 L4.14177444,32.4124451 L4.14177444,14.8861293 Z" id="Fill-11" fill="#56DFF9"></path>
        </g>
    </g>
</svg>