<svg width="81" height="29" viewBox="0 0 81 29" xmlns="http://www.w3.org/2000/svg">
    <path d="M45.605 3.108h-11.34c-1.29 0-2.342 1.02-2.342 2.276v20.38c0 1.255 1.051 2.276 2.343 2.276s2.343-1.021 2.343-2.277V7.661h8.996c2.55 0 4.626 2.015 4.626 4.493v1.936c0 2.478-2.075 4.493-4.626 4.493h-6.447v4.554h6.447c5.136 0 9.313-4.06 9.313-9.047v-1.936c0-4.988-4.177-9.046-9.313-9.046zM26.59 21.163a13.28 13.28 0 0 0 1.935-6.873c0-7.522-6.3-13.642-14.043-13.642C6.739.648.44 6.768.44 14.29c0 7.523 6.299 13.643 14.042 13.643 2.393 0 4.761-.602 6.847-1.742l.15-.082 1.252 1.245a2.36 2.36 0 0 0 1.677.686c.614 0 1.197-.23 1.638-.65a2.229 2.229 0 0 0 .037-3.218l-8.558-8.506a2.398 2.398 0 0 0-3.314-.037 2.233 2.233 0 0 0-.038 3.22l3.87 3.846-.32.117a9.508 9.508 0 0 1-3.241.567c-5.158 0-9.354-4.078-9.354-9.09 0-5.01 4.196-9.087 9.354-9.087 5.159 0 9.356 4.077 9.356 9.088a8.792 8.792 0 0 1-.7 3.443l3.452 3.43zM71.051 3.108h-11.34c-1.293 0-2.344 1.02-2.344 2.276v20.38c0 1.255 1.051 2.276 2.344 2.276 1.277 0 2.304-.974 2.336-2.218l.008-18.16h8.996c2.55 0 4.625 2.014 4.625 4.492v1.936c0 2.478-2.075 4.493-4.625 4.493h-6.506v4.554h6.506c5.135 0 9.311-4.06 9.311-9.047v-1.936c0-4.988-4.176-9.046-9.31-9.046z" fill="#FFF" fill-rule="evenodd"/>
</svg>
