<?xml version="1.0" encoding="UTF-8"?>
<svg width="38px" height="38px" viewBox="0 0 38 38" version="1.1" xmlns="http://www.w3.org/2000/svg" xmlns:xlink="http://www.w3.org/1999/xlink">
    <title>pic/qrcode</title>
    <g id="slice" stroke="none" stroke-width="1" fill="none" fill-rule="evenodd">
        <g id="出圖整理1128" transform="translate(-1018, -266)">
            <g id="pic/qrcode" transform="translate(1018, 266)">
                <rect id="Rectangle" stroke="#D7E1EC" stroke-width="4" fill="#162044" x="2.6" y="2.6" width="33.3647059" height="33.3647059" rx="8"></rect>
                <path d="M19.8949512,21.7758206 L21.9127865,20.6107971 L23.9303924,21.7758206 C24.1866453,21.9233324 24.5039571,21.9230324 24.7596629,21.7758206 L25.4993218,21.34855 L22.4546041,19.59055 C22.1205806,19.3977029 21.7052747,19.3974559 21.3707218,19.59055 L18.3260394,21.34855 L19.0659453,21.7758206 C19.3216512,21.9230324 19.6392629,21.9227853 19.8949512,21.7758206" id="Fill-1" fill="#04AEE8"></path>
                <path d="M18.6694794,17.06128 L16.6518559,18.22618 L14.6340382,17.06128 C14.3783324,16.9138212 14.0607206,16.9138212 13.8050324,17.06128 L13.0653912,17.4887271 L16.1100735,19.2464447 C16.4451735,19.4392918 16.85995,19.4390447 17.1939735,19.2464447 L20.2386735,17.4887271 L19.4987676,17.06128 C19.24225,16.9135388 18.9249029,16.9139271 18.6694794,17.06128" id="Fill-3" fill="#04AEE8"></path>
                <path d="M27.2394012,16.0479453 L22.5499247,13.2584041 C22.1571894,13.0312512 21.6686835,13.0316218 21.2743776,13.2587924 L20.7565071,13.5581394 L26.5977365,17.0214629 L26.5977365,21.9083924 L26.5654424,21.9269571 L21.9127953,24.6131394 L21.8805188,24.5942924 L17.2276071,21.9082688 L17.2276071,20.2604747 C16.8387012,20.3762394 16.4602424,20.3759747 16.0723953,20.2595394 L16.0723953,22.0328924 C16.0723953,22.3670218 16.2524482,22.6784571 16.5418247,22.8455924 L21.2743776,25.5781688 C21.6689306,25.8050747 22.1574718,25.8053747 22.5509835,25.5781688 L27.1144953,22.9435688 C27.5082894,22.7159924 27.7529482,22.2921982 27.7529482,21.8378571 L27.7529482,16.9506629 C27.7529482,16.5821924 27.5562188,16.2363453 27.2394012,16.0479453" id="Fill-5" fill="#56DFF9"></path>
                <path d="M11.9666729,16.9287471 L11.9990024,16.9102 L16.6516141,14.224 L16.6839435,14.2428118 L21.3368024,16.9288706 L21.3368024,18.5767882 C21.7251965,18.4609176 22.10362,18.4613059 22.4920141,18.5777412 L22.4920141,16.8042647 C22.4920141,16.4702412 22.3122612,16.1588235 22.0228847,15.9915471 L17.2900671,13.2589176 C17.0967965,13.1475118 16.8760847,13.0885529 16.6518612,13.0885529 C16.4276906,13.0885529 16.2069965,13.1475118 16.0134612,13.2589176 L11.4499141,15.8937118 C11.0563847,16.1210059 10.8117612,16.5446412 10.8117612,16.9993882 L10.8117612,21.8864412 C10.8117612,22.2550706 11.0084906,22.6009353 11.3253082,22.7892118 L16.0145376,25.5787353 C16.4077671,25.8057824 16.8962729,25.8056235 17.2900671,25.5783294 L17.8079024,25.2791412 L11.9666729,21.8156765 L11.9666729,16.9287471 Z" id="Fill-8" fill="#56DFF9"></path>
            </g>
        </g>
    </g>
</svg>