<svg width="61" height="44" viewBox="0 0 61 44" xmlns="http://www.w3.org/2000/svg">
    <g fill="none" fill-rule="evenodd">
        <path d="M20.829.077c.799 0 1.586.203 2.275.59l16.879 9.466a3.247 3.247 0 0 1 1.673 2.817v6.143a7.187 7.187 0 0 0-4.12-.003v-5.71L20.943 4.077l-.116-.066-16.593 9.306-.115.065v16.931l20.832 12-1.847 1.036a4.678 4.678 0 0 1-4.55 0L1.831 33.686C.701 33.032 0 31.835 0 30.557V13.626c0-1.576.872-3.043 2.275-3.831L18.551.667a4.664 4.664 0 0 1 2.278-.59zm16.485.589a4.678 4.678 0 0 1 4.55-.001l16.723 9.664c1.13.653 1.832 1.851 1.832 3.128V30.39c0 1.573-.872 3.042-2.277 3.831l-16.276 9.127a4.685 4.685 0 0 1-4.552 0L20.436 33.88c-1.033-.58-1.674-1.658-1.674-2.815V24.92a7.187 7.187 0 0 0 4.12.003v5.71l16.593 9.305.115.066 16.594-9.307.115-.064v-16.93l-20.832-12z" fill="#56DFF9"/>
        <path d="m32.394 30.174 7.196-4.036 7.197 4.036c.913.511 2.045.51 2.958 0l2.637-1.48-10.858-6.092a3.98 3.98 0 0 0-3.867 0L26.8 28.693l2.64 1.48c.91.511 2.043.51 2.955 0M28.024 13.84l-7.195 4.036-7.198-4.036a3.037 3.037 0 0 0-2.956 0l-2.638 1.48 10.858 6.09a3.98 3.98 0 0 0 3.867 0l10.858-6.09-2.64-1.48a3.04 3.04 0 0 0-2.956 0" fill="#04AEE8"/>
    </g>
</svg>
